<svg width="64px" height="64px" viewBox="0 0 128 128" xmlns="http://www.w3.org/2000/svg" xmlns:xlink="http://www.w3.org/1999/xlink" aria-hidden="true" role="img" class="iconify iconify--noto" preserveAspectRatio="xMidYMid meet" fill="#000000">
  <g id="SVGRepo_bgCarrier" stroke-width="0"></g>
  <g id="SVGRepo_tracerCarrier" stroke-linecap="round" stroke-linejoin="round"></g>
  <g id="SVGRepo_iconCarrier">
    <path d="M14.16 48.37c-.43 4.5-10 10.84-9.57 26.89s13.09 44.06 57.72 44.77c44.63.7 60.96-27.31 61.1-46.6c.13-17.88-8.58-21.43-9.57-26.04c-.84-3.94 6.76-21.96-10.28-28.44c-20.11-7.65-27.6 11.68-28.16 12.1c-.56.42-6.05.7-10.84.7s-10 0-10.56-.56c-.56-.56-12.81-19.99-30.55-11.83c-16.64 7.67-9.01 26.05-9.29 29.01z" fill="#4ade80"></path>
    <path d="M 95.06 51.93 C 90.73 51.77 87.22 47.64 87.22 42.36 C 87.22 38.761 88.851 35.659 91.261 34.023 L 103.028 43.551 C 102.612 48.303 99.698 52.106 95.06 51.93 Z" fill="#2f2f2f"></path>
    <path d="M53.29 63.5c-.81 1.79-3.06 2.35-4.57 1.48c-1.5-.87-1.91-3.23-.93-4.93c.98-1.7 2.65-1.96 3.87-1.48c1.63.64 2.83 2.28 1.63 4.93z" fill="#2f2f2f"></path>
    <path d="M80.33 60.55c.77 1.86-.16 4.04-1.94 4.57c-1.78.53-3.69-.61-4.26-2.54c-.57-1.93.14-3.61 1.87-4.3c1.13-.44 3.19-.48 4.33 2.27z" fill="#2f2f2f"></path>
    <path d="M 63.596 88.584 C 73.279 88.394 81.489 90.492 85.766 91.861 C 86.327 92.051 87.23 92.361 88.392 92.777 C 88.749 92.915 88.936 92.994 88.936 92.994 L 88.961 92.982 C 89.53 93.188 90.151 93.416 90.816 93.664 C 97.006 95.974 100.956 100.334 104.236 95.544 C 106.996 91.504 98.626 85.544 98.626 85.544 C 98.626 85.544 98.621 85.547 98.612 85.553 C 94.375 82.065 83.122 74.777 63.316 75.074 C 37.976 75.454 27.466 86.434 27.466 86.434 C 27.173 86.734 20.603 93.532 24.456 96.104 C 26.706 97.604 29.726 95.844 31.416 94.884 C 34.686 92.994 40.316 91.724 40.316 91.724 C 40.316 91.724 40.301 91.721 40.272 91.716 C 45.628 90.478 54.572 88.761 63.596 88.584 Z" style="fill: rgb(248, 135, 79);"></path>
    <path d="M 31.416 94.884 C 29.726 95.844 26.706 97.604 24.456 96.104 C 20.603 93.532 27.173 86.734 27.466 86.434 C 27.466 86.434 37.976 75.454 63.316 75.074 C 83.122 74.777 94.375 82.065 98.612 85.553 C 98.621 85.547 98.626 85.544 98.626 85.544 C 98.626 85.544 106.996 91.504 104.236 95.544 C 101.891 98.969 99.203 97.716 95.599 95.879 C 95.003 94.664 85.14 75.281 63.266 75.897 C 41.256 76.517 32.127 94.422 32.127 94.422 L 32.121 94.503 C 31.877 94.627 31.641 94.754 31.416 94.884 Z" style="fill: rgb(134, 91, 81);"></path>
    <path d="M 34.278 34.029 C 29.948 34.189 26.438 38.319 26.438 43.599 C 26.438 47.198 28.069 50.3 30.479 51.936 L 42.246 42.408 C 41.83 37.656 38.916 33.853 34.278 34.029 Z" fill="#2f2f2f" style="transform-box: fill-box; transform-origin: 50% 50%;" transform="matrix(-1, 0, 0, -1, 0.000001, -0.000003)"></path>
  </g>
</svg>